<svg width="1200" height="620" viewBox="0 0 1200 620" fill="none" xmlns="http://www.w3.org/2000/svg" role="img" aria-labelledby="title desc">
  <title id="title">AI-native engineering dashboard</title>
  <desc id="desc">AI-native engineering positioning dashboard for Marko Mirić.</desc>
  <defs>
    <linearGradient id="blue" x1="0" y1="0" x2="1" y2="1"><stop stop-color="#7AA2FF"/><stop offset="1" stop-color="#3D6DFF"/></linearGradient>
    <linearGradient id="green" x1="0" y1="0" x2="1" y2="1"><stop stop-color="#70E0A2"/><stop offset="1" stop-color="#35B779"/></linearGradient>
  </defs>
  <style>
    .bg { fill: #0B111B; }
    .panel { fill: #101722; stroke: #253244; stroke-width: 1; }
    .muted { fill: #94A3B8; font-family: ui-sans-serif, system-ui, -apple-system, Segoe UI, sans-serif; font-weight: 700; }
    .text { fill: #E5E7EB; font-family: ui-sans-serif, system-ui, -apple-system, Segoe UI, sans-serif; font-weight: 800; }
    .small { fill: #7C8799; font-family: ui-sans-serif, system-ui, -apple-system, Segoe UI, sans-serif; font-weight: 700; }
    .mono { fill: #AAB4C5; font-family: ui-monospace, SFMono-Regular, Menlo, Consolas, monospace; font-weight: 700; }
    .track { stroke: #202938; stroke-width: 5; stroke-linecap: round; }
    .barBlue { stroke: url(#blue); stroke-width: 5; stroke-linecap: round; }
    .barGreen { stroke: url(#green); stroke-width: 5; stroke-linecap: round; }
  </style>
  <rect class="bg" width="1200" height="620" rx="24"/>
  <rect class="panel" x="24" y="24" width="1152" height="248" rx="18"/>
  <circle cx="135" cy="148" r="76" stroke="#202938" stroke-width="18"/>
  <circle cx="135" cy="148" r="76" stroke="url(#blue)" stroke-width="18" stroke-linecap="round" stroke-dasharray="565.49 0" transform="rotate(-90 135 148)"/>
  <text class="text" x="135" y="154" text-anchor="middle" font-size="46">100%</text>
  <text class="muted" x="135" y="184" text-anchor="middle" font-size="13">AI-native index</text>
  <text class="muted" x="260" y="75" font-size="14">AI-assisted signal</text>
  <text class="text" x="260" y="104" font-size="26">100%</text>
  <text class="text" x="372" y="104" font-size="22">AI Coding · 15h 37m</text>
  <line class="track" x1="260" y1="128" x2="960" y2="128"/>
  <line class="barBlue" x1="260" y1="128" x2="960" y2="128"/>
  <text class="muted" x="1010" y="133" font-size="15">100%</text>
  <text class="muted" x="260" y="170" font-size="14">Human-owned judgment</text>
  <text class="text" x="260" y="199" font-size="26">Architecture · review · production calls</text>
  <line class="track" x1="260" y1="224" x2="960" y2="224"/>
  <text class="muted" x="1010" y="229" font-size="15">0%</text>
  <rect class="panel" x="24" y="294" width="270" height="136" rx="16"/>
  <text class="muted" x="48" y="336" font-size="14">Operating mode</text>
  <text class="text" x="48" y="374" font-size="28">Agent-first</text>
  <text class="small" x="48" y="404" font-size="13">Implementation accelerated by AI agents</text>
  <rect class="panel" x="318" y="294" width="270" height="136" rx="16"/>
  <text class="muted" x="342" y="336" font-size="14">Control layer</text>
  <text class="text" x="342" y="374" font-size="28">Human-led</text>
  <text class="small" x="342" y="404" font-size="13">Architecture, debugging, review, release</text>
  <rect class="panel" x="612" y="294" width="270" height="136" rx="16"/>
  <text class="muted" x="636" y="336" font-size="14">Primary stack signal</text>
  <text class="text" x="636" y="374" font-size="24">TypeScript + Python</text>
  <text class="small" x="636" y="404" font-size="13">WakaTime language mix</text>
  <rect class="panel" x="906" y="294" width="270" height="136" rx="16"/>
  <text class="muted" x="930" y="336" font-size="14">Focus surface</text>
  <text class="text" x="930" y="374" font-size="24">Backend + AI tools</text>
  <text class="small" x="930" y="404" font-size="13">Recent project signal</text>
  <rect class="panel" x="24" y="452" width="1152" height="120" rx="16"/>
  <text class="muted" x="48" y="493" font-size="14">Positioning</text>
  <text class="text" x="48" y="529" font-size="26">AI-native software engineer: agents for throughput, human judgment for correctness.</text>
  <text class="mono" x="48" y="555" font-size="12">WakaTime window: Last 7 Days · tracked signal: 15 hrs 37 mins · updated by GitHub Actions</text>
</svg>
